# xmcd
#
# Track frame offsets:
#	150
#	20171
#	42410
#	58712
#	76260
#	95111
#	120063
#	137958
#	158194
#	174330
#	198496
#	210400
#	232270
#
# Disc length: 3553 seconds
#
# Revision: 3
# Processed by: cddbd v1.4b41PL1 Copyright (c) Steve Scherf et al.
# Submitted via: audiograbber 1.80
#
DISCID=b20ddf0d
DTITLE=Wu-Tang Clan - Wu-Tang Clan - The W
DYEAR=1900
DGENRE=
TTITLE0=Chamber Music
TTITLE1=Careful (Click, Click)
TTITLE2=Hollow Bones
TTITLE3=Wu-tang Clan (featuring Redman) - Redbull (featuring Redman)
TTITLE4=Wu-tang Clan (Featuring Junior Reid) - One Blood Under W (Featuring Jun
TTITLE4=ior Reid)
TTITLE5=Wu-Tang Clan (Featuring Snoop Dogg) - Conditioner (featuring Snoop Dogg
TTITLE5=)
TTITLE6=Protect Ya Neck (The Jump Off)
TTITLE7=Wu-Tang Clan (Featuring Nas) - Let My Niggas Live (Featuring Nas)
TTITLE8=I Can't Go To Sleep (Featuring Isaac Hayes)
TTITLE9=Do You Really (Thang Thang)
TTITLE10=The Monument (Featuring Busta Rhymes)
TTITLE11=Gravel Pit
TTITLE12=Jah World (Featuring Junior Reid)
EXTD=
EXTT0=
EXTT1=
EXTT2=
EXTT3=
EXTT4=
EXTT5=
EXTT6=
EXTT7=
EXTT8=
EXTT9=
EXTT10=
EXTT11=
EXTT12=
PLAYORDER=
